<?xml version="1.0" encoding="utf-8"?>
<!-- Generator: Adobe Illustrator 23.0.4, SVG Export Plug-In . SVG Version: 6.00 Build 0)  -->
<svg version="1.1" id="Layer_1" xmlns="http://www.w3.org/2000/svg" xmlns:xlink="http://www.w3.org/1999/xlink" x="0px" y="0px"
	 viewBox="0 0 263.2 101.6" style="enable-background:new 0 0 263.2 101.6;" xml:space="preserve">
<style type="text/css">
	.st0{fill:#1CA2D8;}
	.st1{fill:none;stroke:#000000;stroke-width:0.75;stroke-miterlimit:10;}
	.st2{fill:#7D3A8E;}
	.st3{fill:#FFFFFF;}
	.st4{fill:#1B98D0;}
</style>
<path d="M251.6,47.9c0.5,0,0.7,0.2,0.7,0.7v5.2c0,0.5-0.2,0.7-0.7,0.7h-10.8v29.5c0,0.5-0.2,0.7-0.7,0.7h-6.1
	c-0.5,0-0.7-0.2-0.7-0.7V54.4h-11c-0.5,0-0.7-0.2-0.7-0.7v-5.2c0-0.5,0.2-0.7,0.7-0.7H251.6z"/>
<path d="M57.5,47.3C47.3,47.3,39,55.6,39,65.7s8.3,18.4,18.4,18.4s18.4-8.3,18.4-18.4S67.7,47.3,57.5,47.3z M57.5,77.2
	c-6.3,0-11.5-5.1-11.5-11.5c0-6.3,5.1-11.5,11.5-11.5c6.3,0,11.5,5.1,11.5,11.5C68.9,72.1,63.8,77.2,57.5,77.2z"/>
<path d="M30.2,73.6c-2.2,2.3-5.2,3.7-8.7,3.6c-5.9-0.2-10.9-5-11.1-11c-0.3-6.5,5-11.9,11.4-11.9c3,0,5.6,1.1,7.7,3
	c0.2,0.2,0.6,0.2,0.9,0l4.5-3.5c0.3-0.2,0.4-0.7,0.1-1c-3.7-3.7-8.9-5.9-14.7-5.5C11.6,48,4.5,55,3.5,63.6
	C2.3,74.8,11,84.2,21.8,84.2c5.8,0,10.9-2.7,14.3-6.8c0.3-0.3,0.2-0.8-0.2-1l-5-2.9C30.7,73.3,30.4,73.4,30.2,73.6z"/>
<path d="M177.1,73.6c-2.2,2.3-5.2,3.7-8.7,3.6c-5.9-0.2-10.9-5-11.1-11c-0.3-6.5,5-11.9,11.4-11.9c3,0,5.6,1.1,7.7,3
	c0.2,0.2,0.6,0.2,0.9,0l4.5-3.5c0.3-0.2,0.4-0.7,0.1-1c-3.7-3.7-8.9-5.9-14.7-5.5c-8.7,0.7-15.9,7.6-16.8,16.3
	c-1.2,11.1,7.4,20.5,18.3,20.5c5.8,0,10.9-2.7,14.3-6.8c0.3-0.3,0.2-0.8-0.2-1l-5-2.9C177.7,73.3,177.3,73.4,177.1,73.6z"/>
<path d="M213,74.1c-2.2,2.3-5.2,3.7-8.7,3.6c-5.9-0.2-10.9-5-11.1-11c-0.3-6.5,5-11.9,11.4-11.9c3,0,5.6,1.1,7.7,3
	c0.2,0.2,0.6,0.2,0.9,0l4.5-3.5c0.3-0.2,0.4-0.7,0.1-1c-3.7-3.7-8.9-5.9-14.7-5.5c-8.7,0.7-15.9,7.6-16.8,16.3
	c-1.2,11.1,7.4,20.5,18.3,20.5c5.8,0,10.9-2.7,14.3-6.8c0.3-0.3,0.2-0.8-0.2-1l-5-2.9C213.6,73.8,213.2,73.8,213,74.1z"/>
<path class="st0" d="M111,47.9H105c-0.5,0-0.7,0.2-0.7,0.7v23.6L87.5,48.3c-0.2-0.3-0.5-0.5-0.8-0.5h-5.8c-0.5,0-0.7,0.2-0.7,0.7
	v15.3H62.3c-0.8-1.9-2.6-3.2-4.8-3.2c-2.8,0-5.2,2.3-5.2,5.2c0,2.8,2.3,5.2,5.2,5.2c2,0,3.7-1.2,4.6-2.8h18v15.8
	c0,0.5,0.2,0.7,0.7,0.7h6c0.5,0,0.7-0.2,0.7-0.7V60.3l16.8,23.8c0.2,0.3,0.5,0.5,0.8,0.5h5.8c0.5,0,0.7-0.2,0.7-0.7V48.6
	C111.8,48.1,111.5,47.9,111,47.9z"/>
<path class="st0" d="M168.6,61c-2.1,0-3.9,1.2-4.7,3h-16.7V48.6c0-0.5-0.2-0.7-0.7-0.7h-6.1c-0.5,0-0.7,0.2-0.7,0.7v23.6l-16.8-23.8
	c-0.2-0.3-0.5-0.5-0.8-0.5h-5.8c-0.5,0-0.7,0.2-0.7,0.7v35.3c0,0.5,0.2,0.7,0.7,0.7h6c0.5,0,0.7-0.2,0.7-0.7V60.3l16.8,23.8
	c0.2,0.3,0.5,0.5,0.8,0.5h5.8c0.5,0,0.7-0.2,0.7-0.7V68.2h16.7c0.8,1.8,2.6,3,4.7,3c2.8,0,5.2-2.3,5.2-5.2
	C173.7,63.3,171.4,61,168.6,61z"/>
<g>
	<path class="st0" d="M168.6,38c-6.1,0-11.7,2-16.3,5.3l4.3,4.3c3.4-2.3,7.6-3.6,12-3.6c4.6,0,8.8,1.4,12.3,3.8l4.3-4.3
		C180.5,40,174.8,38,168.6,38z"/>
</g>
<g>
	<path class="st0" d="M168.6,27.7c-8.9,0-17.2,3.1-23.6,8.2l4.3,4.3c5.4-4.1,12.1-6.5,19.4-6.5c7.4,0,14.2,2.5,19.7,6.8l4.3-4.3
		C186,30.8,177.6,27.7,168.6,27.7z"/>
</g>
<g>
	<path class="st0" d="M168.6,17.5c-11.7,0-22.5,4.2-30.9,11.2l4.3,4.3c7.3-5.9,16.5-9.5,26.6-9.5c10.2,0,19.6,3.6,26.9,9.7l4.2-4.2
		C191.3,21.8,180.4,17.5,168.6,17.5z"/>
</g>
<path class="st1" d="M45.8,49"/>
<path class="st2" d="M80.1,14.8c0-4.2-3.4-7.6-7.6-7.6c-16-1-39.9,0-39.9,0c-4.2,0-7.6,3.4-7.6,7.6c-1.1,10.5,0,19.2,0,19.2
	c0,4.2,3.4,7.6,7.6,7.6c0,0,8.3,0.5,22.1,0.4c1.3,0,2.6,0.2,3.8,0.6l18,5.5l-4.3-4.7l0,0c0,0-1.7-1.8,0.3-1.9c4.2,0,7.6-3.4,7.6-7.6
	C80.9,24.4,80.1,14.8,80.1,14.8z"/>
<g>
	<path class="st3" d="M54.2,21.2c0.1-0.2,0.2-0.3,0.4-0.3h2.2c0.3,0,0.4,0.1,0.3,0.4l-6,13.5c-0.1,0.2-0.2,0.3-0.4,0.3h-1.8
		c-0.2,0-0.3-0.1-0.4-0.3l-3.9-10.2l-4,10.2c-0.1,0.2-0.2,0.3-0.4,0.3h-1.9c-0.2,0-0.3-0.1-0.4-0.3l-5.9-13.5
		c-0.1-0.3,0-0.4,0.3-0.4h2.3c0.2,0,0.3,0.1,0.4,0.3l4.3,10.4l3.8-9.9c0.1-0.2,0.2-0.3,0.4-0.3h2c0.2,0,0.3,0.1,0.4,0.3l3.8,9.9
		L54.2,21.2z"/>
	<path class="st3" d="M60.9,13.6c1.2,0,2,0.8,2,1.9c0,1.1-0.8,2-2,2s-2-0.8-2-2C58.9,14.5,59.8,13.6,60.9,13.6z M59.9,35
		c-0.2,0-0.3-0.1-0.3-0.3V21.3c0-0.2,0.1-0.3,0.3-0.3h2c0.2,0,0.3,0.1,0.3,0.3v13.5c0,0.2-0.1,0.3-0.3,0.3H59.9z"/>
	<path class="st3" d="M68.2,13.6c1.2,0,2,0.8,2,1.9c0,1.1-0.8,2-2,2s-2-0.8-2-2C66.2,14.5,67.1,13.6,68.2,13.6z M67.2,35
		c-0.2,0-0.3-0.1-0.3-0.3V21.3c0-0.2,0.1-0.3,0.3-0.3h2c0.2,0,0.3,0.1,0.3,0.3v13.5c0,0.2-0.1,0.3-0.3,0.3H67.2z"/>
</g>
<g>
	<path class="st4" d="M3.5,88.4c-0.1-0.1,0-0.1,0.1-0.1h1.2c0.1,0,0.1,0,0.1,0.1l1.9,2.9l1.9-2.9c0-0.1,0.1-0.1,0.1-0.1h1.2
		c0.1,0,0.1,0,0.1,0.1l-2.6,4.1v2.7c0,0.1,0,0.1-0.1,0.1h-1c-0.1,0-0.1,0-0.1-0.1v-2.7L3.5,88.4z"/>
	<path class="st4" d="M10.2,91c0.5-0.5,1.1-0.7,1.9-0.7s1.4,0.2,1.9,0.7c0.5,0.5,0.7,1.1,0.7,1.9s-0.3,1.4-0.7,1.9
		c-0.5,0.5-1.1,0.7-1.9,0.7c-0.8,0-1.4-0.2-1.9-0.7c-0.5-0.5-0.7-1.1-0.7-1.9S9.7,91.5,10.2,91z M13.6,92.9c0-0.9-0.6-1.5-1.4-1.5
		c-0.8,0-1.4,0.6-1.4,1.5s0.6,1.5,1.4,1.5C13,94.4,13.6,93.7,13.6,92.9z"/>
	<path class="st4" d="M19.2,90.5c0-0.1,0-0.1,0.1-0.1h1c0.1,0,0.1,0,0.1,0.1v4.7c0,0.1,0,0.1-0.1,0.1h-1c-0.1,0-0.1,0-0.1-0.1v-0.3
		c-0.4,0.4-0.9,0.5-1.5,0.5c-1.2,0-1.9-0.8-1.9-2.1v-2.8c0-0.1,0-0.1,0.1-0.1h1c0.1,0,0.1,0,0.1,0.1v2.6c0,0.8,0.4,1.2,1.1,1.2
		c0.5,0,0.9-0.2,1.1-0.6V90.5z"/>
	<path class="st4" d="M24.7,90.4c0.1,0,0.1,0,0.1,0.1v0.9c0,0.1,0,0.1-0.1,0.1c-0.1,0-0.3,0-0.4,0c-0.7,0-1.2,0.3-1.4,0.8l0,2.9
		c0,0.1,0,0.1-0.1,0.1h-1c-0.1,0-0.1,0-0.1-0.1v-4.7c0-0.1,0-0.1,0.1-0.1h1c0.1,0,0.1,0,0.1,0.1V91c0.3-0.4,0.8-0.7,1.4-0.7
		C24.5,90.3,24.6,90.3,24.7,90.4z"/>
	<path class="st4" d="M38.1,88.4c0-0.1,0.1-0.1,0.1-0.1h1.2c0.1,0,0.1,0,0.1,0.1l-2.8,6.8c0,0.1-0.1,0.1-0.1,0.1h-1
		c-0.1,0-0.1,0-0.1-0.1l-1.9-5l-1.9,5c0,0.1-0.1,0.1-0.1,0.1h-1c-0.1,0-0.1,0-0.1-0.1l-2.8-6.8c0-0.1,0-0.1,0.1-0.1h1.2
		c0.1,0,0.1,0,0.1,0.1l2,5.1l1.9-5c0-0.1,0.1-0.1,0.1-0.1h1c0.1,0,0.1,0,0.1,0.1l1.8,5L38.1,88.4z"/>
	<path class="st4" d="M41.1,89.5c-0.5,0-0.9-0.4-0.9-0.8s0.4-0.8,0.9-0.8s0.9,0.3,0.9,0.8C41.9,89.1,41.6,89.5,41.1,89.5z
		 M40.6,95.3c-0.1,0-0.1,0-0.1-0.1v-4.7c0-0.1,0-0.1,0.1-0.1h1c0.1,0,0.1,0,0.1,0.1v4.7c0,0.1,0,0.1-0.1,0.1H40.6z"/>
	<path class="st4" d="M46,90.4c0.1,0,0.1,0,0.1,0.1v0.9c0,0.1,0,0.1-0.1,0.1c-0.1,0-0.3,0-0.4,0c-0.7,0-1.2,0.3-1.4,0.8l0,2.9
		c0,0.1,0,0.1-0.1,0.1h-1c-0.1,0-0.1,0-0.1-0.1v-4.7c0-0.1,0-0.1,0.1-0.1h1c0.1,0,0.1,0,0.1,0.1V91c0.3-0.4,0.8-0.7,1.4-0.7
		C45.8,90.3,45.9,90.3,46,90.4z"/>
	<path class="st4" d="M47.3,91c0.5-0.5,1.1-0.7,1.8-0.7c0.7,0,1.3,0.2,1.7,0.6c0.4,0.4,0.7,1,0.7,1.7c0,0.2,0,0.4,0,0.5
		c0,0.1,0,0.1-0.1,0.1h-3.5c0,0.8,0.6,1.3,1.4,1.3c0.6,0,1.1-0.2,1.4-0.6c0-0.1,0.1-0.1,0.2,0l0.5,0.5c0.1,0.1,0.1,0.1,0,0.2
		c-0.4,0.6-1.2,1-2.2,1c-0.8,0-1.4-0.2-1.9-0.7c-0.5-0.5-0.7-1.1-0.7-1.9C46.6,92.1,46.8,91.5,47.3,91z M50.2,92.3
		c0-0.6-0.5-1-1.2-1c-0.7,0-1.2,0.4-1.2,1H50.2z"/>
	<path class="st4" d="M52.6,95.3c-0.1,0-0.1,0-0.1-0.1v-6.8c0-0.1,0-0.1,0.1-0.1h1c0.1,0,0.1,0,0.1,0.1v6.8c0,0.1,0,0.1-0.1,0.1
		H52.6z"/>
	<path class="st4" d="M55.5,91c0.5-0.5,1.1-0.7,1.8-0.7c0.7,0,1.3,0.2,1.7,0.6c0.4,0.4,0.7,1,0.7,1.7c0,0.2,0,0.4,0,0.5
		c0,0.1,0,0.1-0.1,0.1H56c0,0.8,0.6,1.3,1.4,1.3c0.6,0,1.1-0.2,1.4-0.6c0-0.1,0.1-0.1,0.2,0l0.5,0.5c0.1,0.1,0.1,0.1,0,0.2
		c-0.4,0.6-1.2,1-2.2,1c-0.8,0-1.4-0.2-1.9-0.7c-0.5-0.5-0.7-1.1-0.7-1.9C54.8,92.1,55,91.5,55.5,91z M58.5,92.3c0-0.6-0.5-1-1.2-1
		c-0.7,0-1.2,0.4-1.2,1H58.5z"/>
	<path class="st4" d="M60.6,94.9c-0.1,0-0.1-0.1,0-0.1l0.3-0.7c0-0.1,0.1-0.1,0.1,0c0.4,0.3,0.9,0.4,1.5,0.4c0.6,0,0.9-0.2,0.9-0.5
		c0-0.1,0-0.2-0.1-0.3c-0.1-0.2-0.2-0.2-0.5-0.2l-0.8-0.2c-0.8-0.2-1.3-0.6-1.3-1.4c0-0.9,0.8-1.5,2-1.5c0.6,0,1.2,0.1,1.7,0.4
		c0.1,0,0.1,0.1,0.1,0.2L64,91.5c0,0.1-0.1,0.1-0.1,0c-0.4-0.2-0.8-0.4-1.3-0.4c-0.5,0-0.8,0.2-0.8,0.5c0,0.1,0,0.2,0.1,0.3
		c0.1,0.1,0.2,0.2,0.5,0.2l0.9,0.2c0.9,0.2,1.3,0.7,1.3,1.4c0,1-0.8,1.6-2.1,1.6C61.7,95.5,61,95.3,60.6,94.9z"/>
	<path class="st4" d="M65.4,94.9c-0.1,0-0.1-0.1,0-0.1l0.3-0.7c0-0.1,0.1-0.1,0.1,0c0.4,0.3,0.9,0.4,1.5,0.4c0.6,0,0.9-0.2,0.9-0.5
		c0-0.1,0-0.2-0.1-0.3c-0.1-0.2-0.2-0.2-0.5-0.2l-0.8-0.2c-0.8-0.2-1.3-0.6-1.3-1.4c0-0.9,0.8-1.5,2-1.5c0.6,0,1.2,0.1,1.7,0.4
		c0.1,0,0.1,0.1,0.1,0.2l-0.3,0.7c0,0.1-0.1,0.1-0.1,0c-0.4-0.2-0.8-0.4-1.3-0.4c-0.5,0-0.8,0.2-0.8,0.5c0,0.1,0,0.2,0.1,0.3
		c0.1,0.1,0.2,0.2,0.5,0.2l0.9,0.2c0.9,0.2,1.3,0.7,1.3,1.4c0,1-0.8,1.6-2.1,1.6C66.5,95.5,65.9,95.3,65.4,94.9z"/>
	<path class="st4" d="M77.7,89.3c0,0.1,0,0.1-0.1,0.1h-3.2V91h3.2c0.1,0,0.1,0,0.1,0.1v0.9c0,0.1,0,0.1-0.1,0.1h-3.2v3.1
		c0,0.1,0,0.1-0.1,0.1h-1c-0.1,0-0.1,0-0.1-0.1v-6.8c0-0.1,0-0.1,0.1-0.1h4.3c0.1,0,0.1,0,0.1,0.1V89.3z"/>
	<path class="st4" d="M79.3,89.5c-0.5,0-0.9-0.4-0.9-0.8s0.4-0.8,0.9-0.8s0.9,0.3,0.9,0.8C80.2,89.1,79.8,89.5,79.3,89.5z
		 M78.8,95.3c-0.1,0-0.1,0-0.1-0.1v-4.7c0-0.1,0-0.1,0.1-0.1h1c0.1,0,0.1,0,0.1,0.1v4.7c0,0.1,0,0.1-0.1,0.1H78.8z"/>
	<path class="st4" d="M85.8,91c0.4,0.5,0.7,1.1,0.7,1.9c0,0.8-0.2,1.4-0.7,1.9c-0.4,0.5-1,0.7-1.8,0.7c-0.7,0-1.2-0.2-1.6-0.6v0.4
		c0,0.1,0,0.1-0.1,0.1h-1c-0.1,0-0.1,0-0.1-0.1v-6.8c0-0.1,0-0.1,0.1-0.1h1c0.1,0,0.1,0,0.1,0.1v2.5c0.4-0.4,0.9-0.6,1.6-0.6
		C84.8,90.3,85.4,90.5,85.8,91z M85.3,92.9c0-0.9-0.6-1.5-1.4-1.5c-0.6,0-1.1,0.3-1.3,0.7v1.5c0.2,0.4,0.7,0.7,1.3,0.7
		C84.7,94.3,85.3,93.7,85.3,92.9z"/>
	<path class="st4" d="M90.5,90.4c0.1,0,0.1,0,0.1,0.1v0.9c0,0.1,0,0.1-0.1,0.1c-0.1,0-0.3,0-0.4,0c-0.7,0-1.2,0.3-1.4,0.8l0,2.9
		c0,0.1,0,0.1-0.1,0.1h-1c-0.1,0-0.1,0-0.1-0.1v-4.7c0-0.1,0-0.1,0.1-0.1h1c0.1,0,0.1,0,0.1,0.1V91c0.3-0.4,0.8-0.7,1.4-0.7
		C90.3,90.3,90.4,90.3,90.5,90.4z"/>
	<path class="st4" d="M91.8,91c0.5-0.5,1.1-0.7,1.8-0.7c0.7,0,1.3,0.2,1.7,0.6c0.4,0.4,0.7,1,0.7,1.7c0,0.2,0,0.4,0,0.5
		c0,0.1,0,0.1-0.1,0.1h-3.5c0,0.8,0.6,1.3,1.4,1.3c0.6,0,1.1-0.2,1.4-0.6c0-0.1,0.1-0.1,0.2,0l0.5,0.5c0.1,0.1,0.1,0.1,0,0.2
		c-0.4,0.6-1.2,1-2.2,1c-0.8,0-1.4-0.2-1.9-0.7c-0.5-0.5-0.7-1.1-0.7-1.9C91.1,92.1,91.3,91.5,91.8,91z M94.7,92.3
		c0-0.6-0.5-1-1.2-1c-0.7,0-1.2,0.4-1.2,1H94.7z"/>
	<path class="st4" d="M99.1,88.4c0-0.1,0-0.1,0.1-0.1h1.2c0.1,0,0.1,0,0.1,0.1l2.5,5.4l2.5-5.4c0-0.1,0.1-0.1,0.1-0.1h1.2
		c0.1,0,0.1,0,0.1,0.1l-3.1,6.8c0,0.1-0.1,0.1-0.1,0.1h-1.1c-0.1,0-0.1,0-0.1-0.1L99.1,88.4z"/>
	<path class="st4" d="M107.1,91c0.5-0.5,1.1-0.7,1.9-0.7s1.4,0.2,1.9,0.7c0.5,0.5,0.7,1.1,0.7,1.9s-0.3,1.4-0.7,1.9
		c-0.5,0.5-1.1,0.7-1.9,0.7c-0.8,0-1.4-0.2-1.9-0.7c-0.5-0.5-0.7-1.1-0.7-1.9S106.7,91.5,107.1,91z M110.5,92.9
		c0-0.9-0.6-1.5-1.4-1.5c-0.8,0-1.4,0.6-1.4,1.5s0.6,1.5,1.4,1.5C109.9,94.4,110.5,93.7,110.5,92.9z"/>
	<path class="st4" d="M113.4,89.5c-0.5,0-0.9-0.4-0.9-0.8s0.4-0.8,0.9-0.8s0.9,0.3,0.9,0.8C114.3,89.1,113.9,89.5,113.4,89.5z
		 M112.9,95.3c-0.1,0-0.1,0-0.1-0.1v-4.7c0-0.1,0-0.1,0.1-0.1h1c0.1,0,0.1,0,0.1,0.1v4.7c0,0.1,0,0.1-0.1,0.1H112.9z"/>
	<path class="st4" d="M119.9,91.6c0,0.1,0,0.1-0.1,0.1l-0.9,0.3c-0.1,0-0.1,0-0.1-0.1c-0.2-0.4-0.6-0.6-1.1-0.6
		c-0.8,0-1.3,0.6-1.3,1.5s0.5,1.5,1.3,1.5c0.5,0,1-0.3,1.1-0.6c0-0.1,0.1-0.1,0.1-0.1l0.9,0.3c0.1,0,0.1,0.1,0.1,0.1
		c-0.3,0.8-1.2,1.4-2.3,1.4c-0.8,0-1.4-0.2-1.9-0.7c-0.5-0.5-0.7-1.1-0.7-1.9c0-0.8,0.2-1.4,0.7-1.9c0.5-0.5,1.1-0.7,1.9-0.7
		C118.7,90.3,119.6,90.8,119.9,91.6z"/>
	<path class="st4" d="M121.4,91c0.5-0.5,1.1-0.7,1.8-0.7c0.7,0,1.3,0.2,1.7,0.6c0.4,0.4,0.7,1,0.7,1.7c0,0.2,0,0.4,0,0.5
		c0,0.1,0,0.1-0.1,0.1h-3.5c0,0.8,0.6,1.3,1.4,1.3c0.6,0,1.1-0.2,1.4-0.6c0-0.1,0.1-0.1,0.2,0l0.5,0.5c0.1,0.1,0.1,0.1,0,0.2
		c-0.4,0.6-1.2,1-2.2,1c-0.8,0-1.4-0.2-1.9-0.7c-0.5-0.5-0.7-1.1-0.7-1.9C120.7,92.1,120.9,91.5,121.4,91z M124.4,92.3
		c0-0.6-0.5-1-1.2-1c-0.7,0-1.2,0.4-1.2,1H124.4z"/>
	<path class="st4" d="M133.8,88.4c0-0.1,0-0.1,0.1-0.1h1c0.1,0,0.1,0,0.1,0.1v6.8c0,0.1,0,0.1-0.1,0.1h-1c-0.1,0-0.1,0-0.1-0.1
		l-3.2-4.8v4.8c0,0.1,0,0.1-0.1,0.1h-1c-0.1,0-0.1,0-0.1-0.1v-6.8c0-0.1,0-0.1,0.1-0.1h1c0.1,0,0.1,0,0.1,0.1l3.2,4.8V88.4z"/>
	<path class="st4" d="M136.8,91c0.5-0.5,1.1-0.7,1.8-0.7c0.7,0,1.3,0.2,1.7,0.6c0.4,0.4,0.7,1,0.7,1.7c0,0.2,0,0.4,0,0.5
		c0,0.1,0,0.1-0.1,0.1h-3.5c0,0.8,0.6,1.3,1.4,1.3c0.6,0,1.1-0.2,1.4-0.6c0-0.1,0.1-0.1,0.2,0l0.5,0.5c0.1,0.1,0.1,0.1,0,0.2
		c-0.4,0.6-1.2,1-2.2,1c-0.8,0-1.4-0.2-1.9-0.7c-0.5-0.5-0.7-1.1-0.7-1.9C136.1,92.1,136.3,91.5,136.8,91z M139.8,92.3
		c0-0.6-0.5-1-1.2-1c-0.7,0-1.2,0.4-1.2,1H139.8z"/>
	<path class="st4" d="M145.8,91.3c0,0.1,0,0.1-0.1,0.1h-1.6v2c0,0.6,0.3,0.9,0.9,0.9c0.2,0,0.4,0,0.6-0.1c0.1,0,0.1,0,0.1,0.1v0.8
		c0,0.1,0,0.1-0.1,0.1c-0.3,0.1-0.6,0.1-0.9,0.1c-1.2,0-1.8-0.6-1.8-1.8v-2.2h-1.3c-0.1,0-0.1,0-0.1-0.1v-0.8c0-0.1,0-0.1,0.1-0.1
		h1.3v-2c0-0.1,0-0.1,0.1-0.1h1c0.1,0,0.1,0,0.1,0.1v2h1.6c0.1,0,0.1,0,0.1,0.1V91.3z"/>
	<path class="st4" d="M153.8,90.5c0-0.1,0.1-0.1,0.1-0.1h1.1c0.1,0,0.1,0,0.1,0.1l-2.1,4.7c0,0.1-0.1,0.1-0.1,0.1H152
		c-0.1,0-0.1,0-0.1-0.1l-1.2-3.2l-1.2,3.2c0,0.1-0.1,0.1-0.1,0.1h-0.9c-0.1,0-0.1,0-0.1-0.1l-2-4.7c0-0.1,0-0.1,0.1-0.1h1.1
		c0.1,0,0.1,0,0.1,0.1l1.3,3.2l1.2-3.1c0-0.1,0.1-0.1,0.1-0.1h0.9c0.1,0,0.1,0,0.1,0.1l1.1,3.1L153.8,90.5z"/>
	<path class="st4" d="M156.1,91c0.5-0.5,1.1-0.7,1.9-0.7s1.4,0.2,1.9,0.7c0.5,0.5,0.7,1.1,0.7,1.9s-0.3,1.4-0.7,1.9
		c-0.5,0.5-1.1,0.7-1.9,0.7c-0.8,0-1.4-0.2-1.9-0.7c-0.5-0.5-0.7-1.1-0.7-1.9S155.6,91.5,156.1,91z M159.4,92.9
		c0-0.9-0.6-1.5-1.4-1.5c-0.8,0-1.4,0.6-1.4,1.5s0.6,1.5,1.4,1.5C158.8,94.4,159.4,93.7,159.4,92.9z"/>
	<path class="st4" d="M164.7,90.4c0.1,0,0.1,0,0.1,0.1v0.9c0,0.1,0,0.1-0.1,0.1c-0.1,0-0.3,0-0.4,0c-0.7,0-1.2,0.3-1.4,0.8l0,2.9
		c0,0.1,0,0.1-0.1,0.1h-1c-0.1,0-0.1,0-0.1-0.1v-4.7c0-0.1,0-0.1,0.1-0.1h1c0.1,0,0.1,0,0.1,0.1V91c0.3-0.4,0.8-0.7,1.4-0.7
		C164.4,90.3,164.5,90.3,164.7,90.4z"/>
	<path class="st4" d="M170.5,90.4c0.1,0,0.1,0.1,0.1,0.1l-1.9,1.8l1.9,2.8c0,0.1,0,0.1-0.1,0.1h-1.2c-0.1,0-0.1,0-0.1-0.1l-1.4-2
		l-0.9,0.9v1.1c0,0.1,0,0.1-0.1,0.1h-1c-0.1,0-0.1,0-0.1-0.1v-6.8c0-0.1,0-0.1,0.1-0.1h1c0.1,0,0.1,0,0.1,0.1v4.2l2.2-2.1
		c0,0,0.1-0.1,0.1-0.1H170.5z"/>
	<path class="st4" d="M173.9,94.7c-0.1,0-0.1-0.1,0-0.1l0.3-0.7c0-0.1,0.1-0.1,0.2,0c0.6,0.4,1.3,0.7,2.1,0.7c0.9,0,1.4-0.4,1.4-1
		c0-0.3-0.1-0.6-0.4-0.7c-0.3-0.2-0.4-0.2-0.7-0.3l-0.7-0.2c-0.3-0.1-0.5-0.2-0.7-0.2c-0.2-0.1-0.4-0.2-0.6-0.3
		c-0.5-0.3-0.7-0.8-0.7-1.5c0-0.6,0.2-1.1,0.7-1.5c0.5-0.4,1.1-0.6,1.8-0.6c0.9,0,1.7,0.2,2.3,0.6c0.1,0,0.1,0.1,0,0.1l-0.3,0.8
		c0,0.1-0.1,0.1-0.1,0c-0.6-0.4-1.2-0.5-1.8-0.5c-0.8,0-1.3,0.4-1.3,1c0,0.6,0.4,0.8,1.2,1l0.8,0.2c0.4,0.1,0.5,0.1,0.9,0.4
		c0.6,0.3,0.9,0.8,1,1.7c0,1.3-1,2.1-2.7,2.1C175.4,95.4,174.6,95.2,173.9,94.7z"/>
	<path class="st4" d="M180.6,91c0.5-0.5,1.1-0.7,1.8-0.7c0.7,0,1.3,0.2,1.7,0.6c0.4,0.4,0.7,1,0.7,1.7c0,0.2,0,0.4,0,0.5
		c0,0.1,0,0.1-0.1,0.1h-3.5c0,0.8,0.6,1.3,1.4,1.3c0.6,0,1.1-0.2,1.4-0.6c0-0.1,0.1-0.1,0.2,0l0.5,0.5c0.1,0.1,0.1,0.1,0,0.2
		c-0.4,0.6-1.2,1-2.2,1c-0.8,0-1.4-0.2-1.9-0.7c-0.5-0.5-0.7-1.1-0.7-1.9C179.9,92.1,180.2,91.5,180.6,91z M183.6,92.3
		c0-0.6-0.5-1-1.2-1c-0.7,0-1.2,0.4-1.2,1H183.6z"/>
	<path class="st4" d="M188.8,90.4c0.1,0,0.1,0,0.1,0.1v0.9c0,0.1,0,0.1-0.1,0.1c-0.1,0-0.3,0-0.4,0c-0.7,0-1.2,0.3-1.4,0.8l0,2.9
		c0,0.1,0,0.1-0.1,0.1h-1c-0.1,0-0.1,0-0.1-0.1v-4.7c0-0.1,0-0.1,0.1-0.1h1c0.1,0,0.1,0,0.1,0.1V91c0.3-0.4,0.8-0.7,1.4-0.7
		C188.6,90.3,188.7,90.3,188.8,90.4z"/>
	<path class="st4" d="M189.4,90.6c0-0.1,0-0.1,0.1-0.1h1.2c0.1,0,0.1,0,0.1,0.1l1.6,3.4l1.7-3.4c0-0.1,0.1-0.1,0.1-0.1h1.1
		c0.1,0,0.1,0,0.1,0.1l-2.3,4.7c0,0.1-0.1,0.1-0.1,0.1h-1c-0.1,0-0.1,0-0.1-0.1L189.4,90.6z"/>
	<path class="st4" d="M196.8,89.5c-0.5,0-0.9-0.4-0.9-0.8s0.4-0.8,0.9-0.8s0.9,0.3,0.9,0.8C197.7,89.1,197.3,89.5,196.8,89.5z
		 M196.3,95.3c-0.1,0-0.1,0-0.1-0.1v-4.7c0-0.1,0-0.1,0.1-0.1h1c0.1,0,0.1,0,0.1,0.1v4.7c0,0.1,0,0.1-0.1,0.1H196.3z"/>
	<path class="st4" d="M203.3,91.6c0,0.1,0,0.1-0.1,0.1l-0.9,0.3c-0.1,0-0.1,0-0.1-0.1c-0.2-0.4-0.6-0.6-1.1-0.6
		c-0.8,0-1.3,0.6-1.3,1.5s0.5,1.5,1.3,1.5c0.5,0,1-0.3,1.1-0.6c0-0.1,0.1-0.1,0.1-0.1l0.9,0.3c0.1,0,0.1,0.1,0.1,0.1
		c-0.3,0.8-1.2,1.4-2.3,1.4c-0.8,0-1.4-0.2-1.9-0.7c-0.5-0.5-0.7-1.1-0.7-1.9c0-0.8,0.2-1.4,0.7-1.9c0.5-0.5,1.1-0.7,1.9-0.7
		C202.1,90.3,203,90.8,203.3,91.6z"/>
	<path class="st4" d="M204.8,91c0.5-0.5,1.1-0.7,1.8-0.7c0.7,0,1.3,0.2,1.7,0.6c0.4,0.4,0.7,1,0.7,1.7c0,0.2,0,0.4,0,0.5
		c0,0.1,0,0.1-0.1,0.1h-3.5c0,0.8,0.6,1.3,1.4,1.3c0.6,0,1.1-0.2,1.4-0.6c0-0.1,0.1-0.1,0.2,0l0.5,0.5c0.1,0.1,0.1,0.1,0,0.2
		c-0.4,0.6-1.2,1-2.2,1c-0.8,0-1.4-0.2-1.9-0.7c-0.5-0.5-0.7-1.1-0.7-1.9C204.1,92.1,204.3,91.5,204.8,91z M207.8,92.3
		c0-0.6-0.5-1-1.2-1c-0.7,0-1.2,0.4-1.2,1H207.8z"/>
	<path class="st4" d="M215.7,88.3c1.4,0,2.2,0.8,2.2,2c0,1.3-0.9,2-2.2,2H214v2.9c0,0.1,0,0.1-0.1,0.1h-1c-0.1,0-0.1,0-0.1-0.1v-6.8
		c0-0.1,0-0.1,0.1-0.1H215.7z M215.6,91.3c0.7,0,1-0.4,1-0.9c0-0.6-0.4-0.9-1-0.9H214v1.9H215.6z"/>
	<path class="st4" d="M221.8,90.4c0.1,0,0.1,0,0.1,0.1v0.9c0,0.1,0,0.1-0.1,0.1c-0.1,0-0.3,0-0.4,0c-0.7,0-1.2,0.3-1.4,0.8l0,2.9
		c0,0.1,0,0.1-0.1,0.1h-1c-0.1,0-0.1,0-0.1-0.1v-4.7c0-0.1,0-0.1,0.1-0.1h1c0.1,0,0.1,0,0.1,0.1V91c0.3-0.4,0.8-0.7,1.4-0.7
		C221.5,90.3,221.7,90.3,221.8,90.4z"/>
	<path class="st4" d="M223.1,91c0.5-0.5,1.1-0.7,1.9-0.7s1.4,0.2,1.9,0.7c0.5,0.5,0.7,1.1,0.7,1.9s-0.3,1.4-0.7,1.9
		c-0.5,0.5-1.1,0.7-1.9,0.7c-0.8,0-1.4-0.2-1.9-0.7c-0.5-0.5-0.7-1.1-0.7-1.9S222.6,91.5,223.1,91z M226.4,92.9
		c0-0.9-0.6-1.5-1.4-1.5c-0.8,0-1.4,0.6-1.4,1.5s0.6,1.5,1.4,1.5C225.9,94.4,226.4,93.7,226.4,92.9z"/>
	<path class="st4" d="M227.9,90.6c0-0.1,0-0.1,0.1-0.1h1.2c0.1,0,0.1,0,0.1,0.1l1.6,3.4l1.7-3.4c0-0.1,0.1-0.1,0.1-0.1h1.1
		c0.1,0,0.1,0,0.1,0.1l-2.3,4.7c0,0.1-0.1,0.1-0.1,0.1h-1c-0.1,0-0.1,0-0.1-0.1L227.9,90.6z"/>
	<path class="st4" d="M235.3,89.5c-0.5,0-0.9-0.4-0.9-0.8s0.4-0.8,0.9-0.8s0.9,0.3,0.9,0.8C236.1,89.1,235.8,89.5,235.3,89.5z
		 M234.8,95.3c-0.1,0-0.1,0-0.1-0.1v-4.7c0-0.1,0-0.1,0.1-0.1h1c0.1,0,0.1,0,0.1,0.1v4.7c0,0.1,0,0.1-0.1,0.1H234.8z"/>
	<path class="st4" d="M240.9,88.4c0-0.1,0-0.1,0.1-0.1h1c0.1,0,0.1,0,0.1,0.1v6.8c0,0.1,0,0.1-0.1,0.1h-1c-0.1,0-0.1,0-0.1-0.1v-0.4
		c-0.4,0.4-0.9,0.6-1.6,0.6c-0.7,0-1.3-0.2-1.8-0.7c-0.4-0.5-0.7-1.1-0.7-1.9c0-0.8,0.2-1.4,0.7-1.9c0.4-0.5,1-0.7,1.8-0.7
		c0.7,0,1.2,0.2,1.6,0.6V88.4z M240.9,93.6v-1.6c-0.2-0.4-0.7-0.7-1.3-0.7c-0.9,0-1.4,0.6-1.4,1.5s0.6,1.5,1.4,1.5
		C240.2,94.3,240.7,94.1,240.9,93.6z"/>
	<path class="st4" d="M243.8,91c0.5-0.5,1.1-0.7,1.8-0.7c0.7,0,1.3,0.2,1.7,0.6c0.4,0.4,0.7,1,0.7,1.7c0,0.2,0,0.4,0,0.5
		c0,0.1,0,0.1-0.1,0.1h-3.5c0,0.8,0.6,1.3,1.4,1.3c0.6,0,1.1-0.2,1.4-0.6c0-0.1,0.1-0.1,0.2,0l0.5,0.5c0.1,0.1,0.1,0.1,0,0.2
		c-0.4,0.6-1.2,1-2.2,1c-0.8,0-1.4-0.2-1.9-0.7c-0.5-0.5-0.7-1.1-0.7-1.9C243.1,92.1,243.3,91.5,243.8,91z M246.8,92.3
		c0-0.6-0.5-1-1.2-1c-0.7,0-1.2,0.4-1.2,1H246.8z"/>
	<path class="st4" d="M252,90.4c0.1,0,0.1,0,0.1,0.1v0.9c0,0.1,0,0.1-0.1,0.1c-0.1,0-0.3,0-0.4,0c-0.7,0-1.2,0.3-1.4,0.8l0,2.9
		c0,0.1,0,0.1-0.1,0.1h-1c-0.1,0-0.1,0-0.1-0.1v-4.7c0-0.1,0-0.1,0.1-0.1h1c0.1,0,0.1,0,0.1,0.1V91c0.3-0.4,0.8-0.7,1.4-0.7
		C251.8,90.3,251.9,90.3,252,90.4z"/>
</g>
</svg>
