<?xml version="1.0" encoding="UTF-8"?>
<svg version="1.1" xmlns="http://www.w3.org/2000/svg" width="1140" height="550">
<path d="M0 0 C0.82129395 0.16983398 1.64258789 0.33966797 2.48876953 0.51464844 C23.10714401 4.9618325 42.73027918 13.59605995 61 24 C61 28.12652317 60.75091226 28.87363162 58.59375 32.109375 C58.09746094 32.86347656 57.60117187 33.61757812 57.08984375 34.39453125 C56.56519531 35.17183594 56.04054688 35.94914062 55.5 36.75 C54.97535156 37.54277344 54.45070313 38.33554688 53.91015625 39.15234375 C52.61481743 41.10712779 51.31128837 43.05589452 50 45 C45.59362005 44.41631907 42.28659053 42.62207146 38.5 40.4375 C-2.94317895 17.60792623 -52.89647063 14.96097093 -98 27 C-110.6478256 30.66768718 -122.45477628 35.70233013 -134 42 C-134.61601074 42.3314502 -135.23202148 42.66290039 -135.86669922 43.00439453 C-144.0284659 47.41843321 -151.66239776 52.31363165 -159 58 C-159.83402344 58.6290625 -160.66804688 59.258125 -161.52734375 59.90625 C-201.19633909 90.92561478 -224.08244664 136.70384723 -230.3984375 186.1171875 C-234.13547251 222.57852912 -226.48334502 259.88532281 -209 292 C-208.67386719 292.61069336 -208.34773438 293.22138672 -208.01171875 293.85058594 C-203.38808446 302.4761507 -198.08193717 310.33192723 -192 318 C-191.32582031 318.87914062 -190.65164062 319.75828125 -189.95703125 320.6640625 C-175.20288913 339.43199562 -156.9220485 354.58152607 -136 366 C-135.05954834 366.51554443 -135.05954834 366.51554443 -134.10009766 367.04150391 C-113.65886823 378.09460208 -91.10618614 385.33628417 -68 388 C-67.07960938 388.11085938 -66.15921875 388.22171875 -65.2109375 388.3359375 C-17.77850203 393.17064855 30.82827457 379.18791042 68.0546875 349.421875 C72.51465277 345.75452955 76.81095918 341.97389371 81 338 C81.49467773 337.53787109 81.98935547 337.07574219 82.49902344 336.59960938 C112.89459084 308.05583347 132.23151032 267.30842803 137 226 C137.11085938 225.09121094 137.22171875 224.18242187 137.3359375 223.24609375 C141.07723232 186.89486434 134.20432838 148.02799654 115.70605469 116.32714844 C112.95449588 111.50530041 112.95449588 111.50530041 113.18457031 108.95043945 C114.20531167 106.50891169 115.22373924 105.81152893 117.45703125 104.421875 C118.15763672 103.98359375 118.85824219 103.5453125 119.58007812 103.09375 C120.68512695 102.42859375 120.68512695 102.42859375 121.8125 101.75 C122.90014648 101.06164062 122.90014648 101.06164062 124.00976562 100.359375 C129.47374907 97 129.47374907 97 134 97 C162.00832427 146.97486414 170.69402039 204.37707039 155.72607422 260.08251953 C144.49892987 299.39362795 122.29191141 338.10880674 90 364 C88.515 365.22396484 88.515 365.22396484 87 366.47265625 C42.21140561 402.92287913 -12.92578011 417.99198318 -70.15625 412.77734375 C-94.90727075 410.16265258 -120.36892352 403.21592443 -142.16845703 391.02246094 C-144.10826877 389.93955883 -146.06595708 388.89482337 -148.02734375 387.8515625 C-195.86673951 362.07524045 -231.26077034 317.02330768 -247.125 265.3125 C-262.84336593 211.86397525 -257.44721113 154.02119596 -231.29223633 104.73413086 C-223.37663503 90.35341467 -213.94012655 77.21647465 -203 65 C-202.49791016 64.43619629 -201.99582031 63.87239258 -201.47851562 63.29150391 C-199.9315239 61.5615712 -198.37477093 59.84114034 -196.8125 58.125 C-196.34980713 57.61364502 -195.88711426 57.10229004 -195.41040039 56.57543945 C-160.68055204 18.99258618 -106.95149908 -2.52905425 -56.48413086 -4.85742188 C-37.35938134 -5.46685113 -18.72922728 -3.88789016 0 0 Z " fill="#405265" transform="translate(431,63)"/>
<path d="M0 0 C8.56237849 7.96267883 10.37334716 18.77990257 10.96875 29.94921875 C11.07516679 40.62282263 9.27106681 50.5170895 2.32421875 58.8984375 C-6.00975026 67.07646946 -16.15104855 68.25836043 -27.29272461 68.15991211 C-30.42837461 68.07898977 -33.00030096 67.86448301 -35.9921875 66.8671875 C-35.9921875 75.4471875 -35.9921875 84.0271875 -35.9921875 92.8671875 C-38.4053125 93.3621875 -40.8184375 93.8571875 -43.3046875 94.3671875 C-44.06048096 94.52380859 -44.81627441 94.68042969 -45.5949707 94.84179688 C-48.45100016 95.42011702 -51.07070294 95.8671875 -53.9921875 95.8671875 C-53.9921875 64.1871875 -53.9921875 32.5071875 -53.9921875 -0.1328125 C-35.89145809 -6.59735872 -17.03964499 -12.27587327 0 0 Z M-35.9921875 12.8671875 C-35.9921875 24.7471875 -35.9921875 36.6271875 -35.9921875 48.8671875 C-32.95982973 50.38336639 -30.11293737 50.07753162 -26.7421875 50.1171875 C-24.78539062 50.15585937 -24.78539062 50.15585937 -22.7890625 50.1953125 C-17.50898853 49.73900981 -14.27043291 48.24907443 -10.6796875 44.3671875 C-7.6718028 39.91106202 -7.77750707 35.75107962 -7.7421875 30.5546875 C-7.7215625 29.80767578 -7.7009375 29.06066406 -7.6796875 28.29101562 C-7.64530817 23.39625813 -8.3168635 20.1196118 -10.9921875 15.8671875 C-15.63417948 11.46324639 -19.17613527 10.72305471 -25.4296875 10.6796875 C-26.35652344 10.66550781 -27.28335937 10.65132812 -28.23828125 10.63671875 C-31.45894237 10.77097966 -31.45894237 10.77097966 -35.9921875 12.8671875 Z " fill="#1CA631" transform="translate(370.9921875,236.1328125)"/>
<path d="M0 0 C8.74776502 8.13118247 11.2505288 17.27689972 12.01953125 28.95703125 C12 32 12 32 11 38 C-5.17 38 -21.34 38 -38 38 C-34.96045824 45.64380848 -34.96045824 45.64380848 -31.22265625 47.9765625 C-21.71006159 50.99753196 -10.9960874 49.20973009 -1.57421875 46.65625 C1 46 1 46 4 46 C4 51.61 4 57.22 4 63 C-9.87221893 68.94523669 -25.65778961 70.51149552 -40.08984375 65.37890625 C-48.316551 61.48088255 -52.67131908 55.89971708 -56.125 47.61328125 C-59.72168903 36.87138411 -60.02776527 21.28065437 -55 11 C-50.0881631 2.13611041 -44.44050925 -2.46403865 -35 -6 C-23.65324631 -9.02580098 -9.18311481 -7.72216472 0 0 Z M-34 14 C-36.76272884 17.1365032 -36.76272884 17.1365032 -38 21 C-28.1 21 -18.2 21 -8 21 C-10.98025102 15.03949796 -11.98893204 13.47072492 -17.875 11.3125 C-24.01100508 10.41014631 -28.55273261 10.9166411 -34 14 Z " fill="#1CA631" transform="translate(448,236)"/>
<path d="M0 0 C8.91484123 7.32998057 11.94118442 14.08460652 13.8125 25.3125 C13.8125 29.6025 13.8125 33.8925 13.8125 38.3125 C-2.6875 38.3125 -19.1875 38.3125 -36.1875 38.3125 C-35.1975 40.2925 -34.2075 42.2725 -33.1875 44.3125 C-33.1875 44.9725 -33.1875 45.6325 -33.1875 46.3125 C-22.24198527 50.74987083 -12.55961956 49.75787778 -1.18359375 46.96875 C1.8125 46.3125 1.8125 46.3125 5.8125 46.3125 C5.8125 51.5925 5.8125 56.8725 5.8125 62.3125 C-8.29038174 68.35659218 -24.58893938 69.77919504 -39.1875 64.3125 C-47.18552878 60.46753085 -52.17933958 54.81212116 -55.21875 46.48828125 C-58.56964356 34.62053324 -58.32488869 22.31473033 -53.12109375 10.9921875 C-48.53913548 3.03802892 -42.46291174 -1.36595678 -33.703125 -3.99609375 C-22.15525115 -6.26717561 -10.47863093 -5.54751049 0 0 Z M-32.7265625 15.71484375 C-35.38921072 18.6126986 -35.38921072 18.6126986 -36.1875 22.3125 C-26.2875 22.3125 -16.3875 22.3125 -6.1875 22.3125 C-8.37764563 16.83713594 -9.086257 15.8631215 -14.1875 13.3125 C-20.37334829 11.90616217 -27.69275311 11.12820017 -32.7265625 15.71484375 Z " fill="#405265" transform="translate(740.1875,235.6875)"/>
<path d="M0 0 C6.40224745 5.03373731 9.71473054 11.73001592 11.6640625 19.52734375 C11.6640625 25.46734375 11.6640625 31.40734375 11.6640625 37.52734375 C-4.8359375 37.52734375 -21.3359375 37.52734375 -38.3359375 37.52734375 C-34.51986168 44.72217256 -34.51986168 44.72217256 -28.4609375 48.12890625 C-19.85682486 49.74217737 -11.76448406 48.2261794 -3.3671875 46.18359375 C-0.3359375 45.52734375 -0.3359375 45.52734375 3.6640625 45.52734375 C3.6640625 51.13734375 3.6640625 56.74734375 3.6640625 62.52734375 C-11.35229461 66.79124762 -29.16294234 70.13907208 -43.64453125 62.2734375 C-50.6189281 57.43486728 -55.71921897 50.88835667 -57.8671875 42.62890625 C-59.65165988 30.82164735 -59.30253605 19.01980767 -53.6484375 8.33984375 C-40.80568279 -7.27972278 -17.36698968 -10.94875436 0 0 Z M-36.3984375 16.52734375 C-37.54815444 18.61193578 -37.54815444 18.61193578 -37.3359375 21.52734375 C-27.4359375 21.52734375 -17.5359375 21.52734375 -7.3359375 21.52734375 C-10.11265345 15.31330429 -10.11265345 15.31330429 -15.3359375 12.52734375 C-22.77044464 10.84774406 -30.64950275 10.95261915 -36.3984375 16.52734375 Z " fill="#405265" transform="translate(951.3359375,236.47265625)"/>
<path d="M0 0 C7.42930541 5.07504734 11.63323149 12.12618098 13.68359375 20.78125 C15.59715328 34.14122342 15.57284719 48.26612755 7.68359375 59.78125 C1.17004042 67.03373585 -6.1987004 70.4362167 -15.91796875 70.984375 C-26.7552825 71.19671324 -36.90410774 70.77065203 -45.6015625 63.49609375 C-53.78065901 55.31699724 -55.583514 44.45987938 -55.69140625 33.28125 C-55.5740053 22.37143414 -54.01310613 12.95423081 -46.31640625 4.78125 C-45.47078125 3.87375 -44.62515625 2.96625 -43.75390625 2.03125 C-32.09555045 -6.92503896 -12.62043528 -6.64009411 0 0 Z M-33.62890625 18.40625 C-38.11325958 24.71756209 -37.60954119 32.33893744 -36.84765625 39.75 C-36.08561645 44.09810946 -35.14342444 46.35907008 -32.31640625 49.78125 C-26.89225658 53.1442228 -21.61104656 53.54076858 -15.31640625 52.78125 C-10.59163294 51.11882976 -8.06477466 48.95469833 -5.31640625 44.78125 C-3.07654665 38.31384084 -3.01601961 28.03133238 -5.50390625 21.59375 C-7.97169055 17.76442953 -10.29801103 15.41863796 -14.69140625 14.03125 C-22.15899437 13.32005113 -27.35388904 13.99677845 -33.62890625 18.40625 Z " fill="#1CA631" transform="translate(292.31640625,233.21875)"/>
<path d="M0 0 C6.99798256 6.0218147 9.60606014 14.07579321 11.0625 22.9375 C11.31021905 26.58888783 11.29716055 30.22051627 11.2578125 33.87890625 C11.2549826 34.88718979 11.25215271 35.89547333 11.24923706 36.93431091 C11.23813177 40.12299983 11.21304545 43.31139741 11.1875 46.5 C11.17745772 48.67512612 11.16833406 50.85025669 11.16015625 53.02539062 C11.13822411 58.32953762 11.10376168 63.63346959 11.0625 68.9375 C5.1225 68.9375 -0.8175 68.9375 -6.9375 68.9375 C-6.98648438 66.08222656 -7.03546875 63.22695313 -7.0859375 60.28515625 C-7.14007252 57.49498621 -7.19733063 54.70489633 -7.25488281 51.91479492 C-7.29297454 49.98777329 -7.32786057 48.06068534 -7.359375 46.13354492 C-7.40545891 43.35050889 -7.46337815 40.56792169 -7.5234375 37.78515625 C-7.53498871 36.93478287 -7.54653992 36.08440948 -7.55844116 35.20826721 C-7.72556489 28.30981832 -7.90822396 21.43507051 -12.375 15.9375 C-19.23058451 10.58679989 -23.60733614 12.9375 -33.9375 12.9375 C-33.9375 31.4175 -33.9375 49.8975 -33.9375 68.9375 C-39.8775 68.9375 -45.8175 68.9375 -51.9375 68.9375 C-51.9375 46.4975 -51.9375 24.0575 -51.9375 0.9375 C-35.45281314 -5.40276418 -15.95923163 -11.22174828 0 0 Z " fill="#1CA631" transform="translate(521.9375,235.0625)"/>
<path d="M0 0 C0.72703125 0.00459229 1.4540625 0.00918457 2.203125 0.01391602 C20.94709762 0.32209762 20.94709762 0.32209762 23.875 3.25 C23.94825168 6.11267567 23.96738205 8.950719 23.9375 11.8125 C23.93298828 12.61880859 23.92847656 13.42511719 23.92382812 14.25585938 C23.91200518 16.25393756 23.89406914 18.25197783 23.875 20.25 C22.85921875 20.105625 21.8434375 19.96125 20.796875 19.8125 C5.82248475 17.73039302 5.82248475 17.73039302 -9.125 19.25 C-9.125 20.9 -9.125 22.55 -9.125 24.25 C-3.48080998 26.35980905 2.12765769 27.14853676 8.06640625 27.9296875 C15.02487606 28.96932306 21.75555294 31.06995267 26.3125 36.75 C26.78558594 37.3171875 27.25867188 37.884375 27.74609375 38.46875 C30.86867771 43.39573369 30.3125672 49.64118403 29.875 55.25 C28.66061869 60.38482492 25.92031073 63.92385562 21.875 67.25 C8.45672793 75.33362435 -8.37953218 73.04751432 -23.09765625 70.00390625 C-26.125 69.25 -26.125 69.25 -28.125 68.25 C-28.125 62.64 -28.125 57.03 -28.125 51.25 C-26.92746094 51.4665625 -25.72992187 51.683125 -24.49609375 51.90625 C-6.88062258 55.78375341 -6.88062258 55.78375341 9.875 52.25 C9.545 50.6 9.215 48.95 8.875 47.25 C4.28580465 45.52280673 -0.09041045 44.82943267 -4.9375 44.375 C-12.77624552 43.49696015 -19.71963476 42.32373153 -25.125 36.1875 C-29.41407944 29.88791457 -28.6520061 22.57462106 -28.125 15.25 C-26.9276129 10.19351817 -24.63104752 7.29056011 -20.375 4.375 C-14.11534523 0.61394692 -7.13225099 -0.09432869 0 0 Z " fill="#405265" transform="translate(645.125,230.75)"/>
<path d="M0 0 C7.26 0 14.52 0 22 0 C23.70921024 3.87461537 25.41756155 7.74960381 27.125 11.625 C27.62692871 12.76388672 28.12885742 13.90277344 28.64599609 15.07617188 C31.81106281 22.26792386 34.93453335 29.47414878 37.9765625 36.71875 C38.80181505 38.92038827 38.80181505 38.92038827 40 40 C45.61 26.8 51.22 13.6 57 0 C64.26 0 71.52 0 79 0 C75.43476591 9.56256585 71.47976192 18.86758462 67.29663086 28.17175293 C65.51865126 32.12689696 63.75163696 36.08693309 61.984375 40.046875 C61.63874512 40.82081604 61.29311523 41.59475708 60.93701172 42.39215088 C56.85280534 51.55060769 52.91642139 60.76843528 49 70 C42.73 70 36.46 70 30 70 C29.25878906 68.28683594 28.51757812 66.57367188 27.75390625 64.80859375 C26.97379304 63.00660139 26.19367187 61.20461247 25.41342163 59.40267944 C24.84647185 58.09332496 24.27959758 56.78393779 23.71279907 55.47451782 C19.94118572 46.76268384 16.15450484 38.05758117 12.3515625 29.359375 C11.56957434 27.56974535 10.78759189 25.7801132 10.00561523 23.99047852 C8.84658152 21.33812302 7.68687416 18.68607172 6.525177 16.03488159 C5.43578539 13.54867829 4.34855905 11.06153817 3.26171875 8.57421875 C2.93108429 7.82142639 2.60044983 7.06863403 2.25979614 6.29302979 C0 1.11361632 0 1.11361632 0 0 Z " fill="#405265" transform="translate(812,232)"/>
<path d="M0 0 C4.19475172 0.58747137 7.22585542 3.01254421 10.5625 5.4375 C11.48796631 6.10422729 11.48796631 6.10422729 12.43212891 6.78442383 C17.44347171 10.45919301 22.01749921 14.44134064 26.546875 18.69921875 C28.68874432 20.70807389 30.87802312 22.61130093 33.125 24.5 C41.96962514 32.23005855 48.99443542 41.63890586 56 51 C56.57492187 51.75152344 57.14984375 52.50304687 57.7421875 53.27734375 C61 57.63029661 61 57.63029661 61 61 C58.51930467 63.29015268 55.58713927 64.99257896 52.75 66.8125 C51.97269531 67.34037109 51.19539062 67.86824219 50.39453125 68.41210938 C49.64042969 68.90130859 48.88632812 69.39050781 48.109375 69.89453125 C47.41811523 70.34675049 46.72685547 70.79896973 46.01464844 71.26489258 C44 72 44 72 41.8527832 71.265625 C39.39110268 69.58406593 38.10955696 67.65405487 36.4375 65.1875 C25.37187759 49.50264746 12.28713761 36.54976072 -3 25 C-3.88171875 24.33097656 -4.7634375 23.66195312 -5.671875 22.97265625 C-7.44115763 21.63942023 -9.21919004 20.31779937 -11 19 C-9.41467191 14.44435939 -7.00996919 10.68524231 -4.375 6.6875 C-3.95476562 6.04232422 -3.53453125 5.39714844 -3.1015625 4.73242188 C-2.07161759 3.15239276 -1.03634372 1.57583953 0 0 Z " fill="#1CA631" transform="translate(497,94)"/>
<path d="M0 0 C0 5.61 0 11.22 0 17 C-7.92 17 -15.84 17 -24 17 C-24 34.49 -24 51.98 -24 70 C-30.27 70 -36.54 70 -43 70 C-43 48.55 -43 27.1 -43 5 C-27.68455321 -0.10514893 -15.77635633 -1.39613773 0 0 Z " fill="#405265" transform="translate(807,232)"/>
</svg>
